<svg width="512" height="512" viewBox="0 0 512 512" fill="none" xmlns="http://www.w3.org/2000/svg">
    <rect width="512" height="512" rx="128" fill="url(#gradient)"/>
    <path d="M144 352V160H224C247.467 160 266.667 164.8 281.6 174.4C296.533 184 307.467 196.8 314.4 212.8C321.333 228.8 324.8 246.933 324.8 267.2C324.8 287.467 321.333 305.6 314.4 321.6C307.467 337.6 296.533 350.4 281.6 360C266.667 369.6 247.467 374.4 224 374.4H144V352ZM189.6 336H222.4C238.4 336 251.467 332.8 261.6 326.4C271.733 320 279.2 311.2 284 300C288.8 288.8 291.2 275.733 291.2 260.8C291.2 245.867 288.8 232.8 284 221.6C279.2 210.4 271.733 201.6 261.6 195.2C251.467 188.8 238.4 185.6 222.4 185.6H189.6V336Z" fill="white"/>
    <defs>
        <linearGradient id="gradient" x1="0" y1="0" x2="512" y2="512" gradientUnits="userSpaceOnUse">
            <stop stop-color="#3B82F6"/>
            <stop offset="1" stop-color="#8B5CF6"/>
        </linearGradient>
    </defs>
</svg> 